<svg width="143" height="24" viewBox="0 0 143 24" fill="none" xmlns="http://www.w3.org/2000/svg">
<path d="M6.45611 1.66307H9.73517L15.6748 18H12.6525L11.6022 15.106H4.60071L3.55047 18H0.528143L6.45611 1.66307ZM5.63927 12.2587H10.552L8.08981 5.52559L5.63927 12.2587ZM25.0268 6.33077H27.8741V18.2217C27.8741 19.0619 27.7029 19.8243 27.3606 20.5089C27.0183 21.2013 26.5516 21.7925 25.9603 22.2826C25.3691 22.7805 24.6923 23.1617 23.9299 23.4262C23.1675 23.6985 22.3662 23.8346 21.526 23.8346C20.7092 23.8346 19.9234 23.6674 19.1688 23.3328C18.4142 22.9983 17.7452 22.5393 17.1617 21.9559C16.586 21.3802 16.1465 20.7228 15.8431 19.9838L18.4453 18.8052C18.6009 19.233 18.8343 19.6065 19.1455 19.9254C19.4644 20.2522 19.8301 20.505 20.2424 20.6839C20.6547 20.8706 21.0826 20.964 21.526 20.964C21.9772 20.964 22.409 20.9017 22.8213 20.7773C23.2414 20.6528 23.6187 20.47 23.9532 20.2288C24.2877 19.9954 24.5483 19.7076 24.7351 19.3653C24.9295 19.0308 25.0268 18.6496 25.0268 18.2217V16.5764C24.6611 17.0898 24.2022 17.506 23.6498 17.825C23.0975 18.1439 22.4596 18.3034 21.7361 18.3034C20.8959 18.3034 20.1101 18.1439 19.3789 17.825C18.6476 17.506 18.0019 17.0665 17.4418 16.5063C16.8894 15.9384 16.4538 15.285 16.1348 14.5459C15.8236 13.8069 15.6681 13.0133 15.6681 12.1654C15.6681 11.3174 15.8236 10.5239 16.1348 9.78486C16.4538 9.04581 16.8894 8.39622 17.4418 7.8361C18.0019 7.2682 18.6476 6.82477 19.3789 6.50581C20.1101 6.18685 20.8959 6.02737 21.7361 6.02737C22.4596 6.02737 23.0975 6.18685 23.6498 6.50581C24.2022 6.81699 24.6611 7.2293 25.0268 7.74274V6.33077ZM21.7711 15.5611C22.3701 15.5611 22.8991 15.4094 23.3581 15.106C23.8249 14.7949 24.1905 14.3825 24.455 13.8691C24.7195 13.3479 24.8517 12.78 24.8517 12.1654C24.8517 11.543 24.7156 10.9751 24.4433 10.4617C24.1788 9.94823 23.8132 9.53592 23.3464 9.22474C22.8874 8.91356 22.3623 8.75797 21.7711 8.75797C21.1876 8.75797 20.6547 8.91356 20.1724 9.22474C19.6901 9.52814 19.305 9.93656 19.0171 10.45C18.7293 10.9635 18.5854 11.5352 18.5854 12.1654C18.5854 12.7955 18.7293 13.3673 19.0171 13.8808C19.305 14.3942 19.6901 14.8026 20.1724 15.106C20.6547 15.4094 21.1876 15.5611 21.7711 15.5611ZM35.0754 18.3034C34.0019 18.3034 33.0217 18.0272 32.1348 17.4749C31.2557 16.9225 30.5517 16.1796 30.0227 15.2461C29.5014 14.3125 29.2408 13.2817 29.2408 12.1537C29.2408 11.3058 29.3925 10.5122 29.6959 9.77319C29.9993 9.02636 30.4155 8.37288 30.9445 7.81276C31.4813 7.24486 32.1037 6.80143 32.8116 6.48247C33.5196 6.16351 34.2742 6.00403 35.0754 6.00403C35.9856 6.00403 36.8181 6.19852 37.5727 6.58749C38.3351 6.96869 38.9808 7.4938 39.5098 8.16284C40.0388 8.83187 40.4238 9.59426 40.665 10.45C40.9062 11.3058 40.9606 12.2004 40.8284 13.1339H32.2982C32.4071 13.5696 32.586 13.9624 32.835 14.3125C33.0839 14.6548 33.399 14.931 33.7802 15.141C34.1614 15.3433 34.5931 15.4483 35.0754 15.4561C35.5733 15.4639 36.0245 15.3472 36.4291 15.106C36.8414 14.8571 37.1837 14.5226 37.456 14.1025L40.3616 14.7793C39.8871 15.814 39.1791 16.6619 38.2378 17.3232C37.2965 17.9767 36.2424 18.3034 35.0754 18.3034ZM32.2048 10.9985H37.9461C37.8605 10.5317 37.6777 10.1116 37.3976 9.73818C37.1253 9.35699 36.7869 9.05359 36.3824 8.82798C35.9779 8.60238 35.5422 8.48958 35.0754 8.48958C34.6087 8.48958 34.1769 8.60238 33.7802 8.82798C33.3834 9.04581 33.045 9.34532 32.7649 9.72651C32.4927 10.0999 32.306 10.5239 32.2048 10.9985ZM52.9492 10.625V18H50.102V11.3719C50.102 10.9129 49.9892 10.4967 49.7635 10.1233C49.5379 9.74207 49.2345 9.44256 48.8533 9.22474C48.4799 8.99913 48.0637 8.88633 47.6047 8.88633C47.1458 8.88633 46.7257 8.99913 46.3445 9.22474C45.971 9.44256 45.6715 9.74207 45.4459 10.1233C45.2281 10.4967 45.1192 10.9129 45.1192 11.3719V18H42.2719L42.2602 6.33077H45.1075L45.1192 7.36933C45.5159 6.94924 45.9905 6.61861 46.5428 6.37744C47.0952 6.1285 47.6903 6.00403 48.3282 6.00403C49.1762 6.00403 49.9503 6.21408 50.6504 6.63417C51.3506 7.04648 51.9068 7.60271 52.3191 8.30287C52.7392 8.99524 52.9492 9.7693 52.9492 10.625ZM63.4014 0.496151H66.2487V18H63.4014V16.5413C63.028 17.0626 62.5573 17.4866 61.9894 17.8133C61.4215 18.14 60.7642 18.3034 60.0173 18.3034C59.1694 18.3034 58.3759 18.1439 57.6368 17.825C56.8978 17.506 56.2443 17.0665 55.6764 16.5063C55.1163 15.9384 54.6767 15.285 54.3578 14.5459C54.0388 13.8069 53.8793 13.0133 53.8793 12.1654C53.8793 11.3174 54.0388 10.5239 54.3578 9.78486C54.6767 9.04581 55.1163 8.39622 55.6764 7.8361C56.2443 7.2682 56.8978 6.82477 57.6368 6.50581C58.3759 6.18685 59.1694 6.02737 60.0173 6.02737C60.7642 6.02737 61.4215 6.19074 61.9894 6.51748C62.5573 6.83644 63.028 7.26042 63.4014 7.78942V0.496151ZM60.0523 15.5611C60.6591 15.5611 61.1959 15.4094 61.6627 15.106C62.1295 14.8026 62.4951 14.3942 62.7596 13.8808C63.0241 13.3595 63.1564 12.7877 63.1564 12.1654C63.1564 11.5352 63.0241 10.9635 62.7596 10.45C62.4951 9.92878 62.1256 9.51647 61.651 9.21307C61.1843 8.90967 60.6514 8.75797 60.0523 8.75797C59.4533 8.75797 58.9049 8.91356 58.407 9.22474C57.9169 9.52814 57.524 9.93656 57.2284 10.45C56.9406 10.9635 56.7966 11.5352 56.7966 12.1654C56.7966 12.7955 56.9444 13.3673 57.2401 13.8808C57.5357 14.3942 57.9285 14.8026 58.4187 15.106C58.9165 15.4094 59.4611 15.5611 60.0523 15.5611ZM77.2016 6.33077H80.0488V18H77.2016L77.0732 16.553C76.7542 17.0742 76.3303 17.4982 75.8012 17.825C75.28 18.1439 74.6616 18.3034 73.9458 18.3034C73.0823 18.3034 72.2733 18.14 71.5186 17.8133C70.764 17.4866 70.0989 17.0353 69.5232 16.4597C68.9553 15.884 68.508 15.2188 68.1812 14.4642C67.8623 13.7096 67.7028 12.9005 67.7028 12.037C67.7028 11.2046 67.8545 10.4228 68.1579 9.69151C68.4691 8.96023 68.9008 8.31843 69.4532 7.76608C70.0055 7.21374 70.6434 6.78198 71.3669 6.4708C72.0904 6.15962 72.8684 6.00403 73.7008 6.00403C74.471 6.00403 75.1594 6.17518 75.7662 6.51748C76.3808 6.85977 76.902 7.29542 77.3299 7.82443L77.2016 6.33077ZM73.8758 15.5611C74.4826 15.5611 75.0194 15.4094 75.4862 15.106C75.9529 14.8026 76.3186 14.3942 76.5831 13.8808C76.8476 13.3595 76.9798 12.7877 76.9798 12.1654C76.9798 11.5352 76.8476 10.9635 76.5831 10.45C76.3186 9.92878 75.9491 9.51647 75.4745 9.21307C75.0077 8.90967 74.4748 8.75797 73.8758 8.75797C73.2768 8.75797 72.7284 8.91356 72.2305 9.22474C71.7404 9.52814 71.3475 9.93656 71.0519 10.45C70.764 10.9635 70.6201 11.5352 70.6201 12.1654C70.6201 12.7955 70.7679 13.3673 71.0635 13.8808C71.3592 14.3942 71.752 14.8026 72.2421 15.106C72.74 15.4094 73.2846 15.5611 73.8758 15.5611ZM81.9757 18V1.66307H88.2421C89.129 1.66307 89.9303 1.88479 90.646 2.32822C91.3617 2.77165 91.9296 3.36678 92.3497 4.11361C92.7698 4.85267 92.9798 5.6734 92.9798 6.57582C92.9798 7.31487 92.8437 7.99558 92.5714 8.61794C92.3069 9.23252 91.9335 9.76541 91.4511 10.2166C90.9766 10.6678 90.4281 11.0101 89.8058 11.2435L93.715 18H90.4359L86.6551 11.5002H84.823V18H81.9757ZM84.823 8.65294H87.9154C88.3199 8.65294 88.6894 8.55181 89.0239 8.34955C89.3585 8.14728 89.6269 7.875 89.8291 7.5327C90.0314 7.1904 90.1325 6.80921 90.1325 6.38911C90.1325 5.96124 90.0314 5.57616 89.8291 5.23386C89.6269 4.89156 89.3585 4.61928 89.0239 4.41701C88.6894 4.21475 88.3199 4.11361 87.9154 4.11361H84.823V8.65294ZM103.481 6.33077H106.328V18H103.481L103.353 16.553C103.034 17.0742 102.61 17.4982 102.081 17.825C101.559 18.1439 100.941 18.3034 100.225 18.3034C99.3618 18.3034 98.5527 18.14 97.7981 17.8133C97.0435 17.4866 96.3784 17.0353 95.8027 16.4597C95.2348 15.884 94.7875 15.2188 94.4607 14.4642C94.1418 13.7096 93.9823 12.9005 93.9823 12.037C93.9823 11.2046 94.134 10.4228 94.4374 9.69151C94.7486 8.96023 95.1803 8.31843 95.7327 7.76608C96.285 7.21374 96.9229 6.78198 97.6464 6.4708C98.3699 6.15962 99.1479 6.00403 99.9803 6.00403C100.75 6.00403 101.439 6.17518 102.046 6.51748C102.66 6.85977 103.182 7.29542 103.609 7.82443L103.481 6.33077ZM100.155 15.5611C100.762 15.5611 101.299 15.4094 101.766 15.106C102.232 14.8026 102.598 14.3942 102.863 13.8808C103.127 13.3595 103.259 12.7877 103.259 12.1654C103.259 11.5352 103.127 10.9635 102.863 10.45C102.598 9.92878 102.229 9.51647 101.754 9.21307C101.287 8.90967 100.754 8.75797 100.155 8.75797C99.5563 8.75797 99.0078 8.91356 98.5099 9.22474C98.0198 9.52814 97.627 9.93656 97.3313 10.45C97.0435 10.9635 96.8996 11.5352 96.8996 12.1654C96.8996 12.7955 97.0474 13.3673 97.343 13.8808C97.6386 14.3942 98.0315 14.8026 98.5216 15.106C99.0195 15.4094 99.5641 15.5611 100.155 15.5611ZM116.781 0.496151H119.628V18H116.781V16.5413C116.407 17.0626 115.937 17.4866 115.369 17.8133C114.801 18.14 114.144 18.3034 113.397 18.3034C112.549 18.3034 111.755 18.1439 111.016 17.825C110.277 17.506 109.624 17.0665 109.056 16.5063C108.496 15.9384 108.056 15.285 107.737 14.5459C107.418 13.8069 107.259 13.0133 107.259 12.1654C107.259 11.3174 107.418 10.5239 107.737 9.78486C108.056 9.04581 108.496 8.39622 109.056 7.8361C109.624 7.2682 110.277 6.82477 111.016 6.50581C111.755 6.18685 112.549 6.02737 113.397 6.02737C114.144 6.02737 114.801 6.19074 115.369 6.51748C115.937 6.83644 116.407 7.26042 116.781 7.78942V0.496151ZM113.432 15.5611C114.039 15.5611 114.575 15.4094 115.042 15.106C115.509 14.8026 115.875 14.3942 116.139 13.8808C116.404 13.3595 116.536 12.7877 116.536 12.1654C116.536 11.5352 116.404 10.9635 116.139 10.45C115.875 9.92878 115.505 9.51647 115.03 9.21307C114.564 8.90967 114.031 8.75797 113.432 8.75797C112.833 8.75797 112.284 8.91356 111.786 9.22474C111.296 9.52814 110.903 9.93656 110.608 10.45C110.32 10.9635 110.176 11.5352 110.176 12.1654C110.176 12.7955 110.324 13.3673 110.62 13.8808C110.915 14.3942 111.308 14.8026 111.798 15.106C112.296 15.4094 112.841 15.5611 113.432 15.5611ZM130.581 6.33077H133.428V18H130.581L130.453 16.553C130.134 17.0742 129.71 17.4982 129.181 17.825C128.659 18.1439 128.041 18.3034 127.325 18.3034C126.462 18.3034 125.653 18.14 124.898 17.8133C124.143 17.4866 123.478 17.0353 122.903 16.4597C122.335 15.884 121.887 15.2188 121.561 14.4642C121.242 13.7096 121.082 12.9005 121.082 12.037C121.082 11.2046 121.234 10.4228 121.537 9.69151C121.849 8.96023 122.28 8.31843 122.833 7.76608C123.385 7.21374 124.023 6.78198 124.746 6.4708C125.47 6.15962 126.248 6.00403 127.08 6.00403C127.85 6.00403 128.539 6.17518 129.146 6.51748C129.76 6.85977 130.281 7.29542 130.709 7.82443L130.581 6.33077ZM127.255 15.5611C127.862 15.5611 128.399 15.4094 128.866 15.106C129.332 14.8026 129.698 14.3942 129.963 13.8808C130.227 13.3595 130.359 12.7877 130.359 12.1654C130.359 11.5352 130.227 10.9635 129.963 10.45C129.698 9.92878 129.328 9.51647 128.854 9.21307C128.387 8.90967 127.854 8.75797 127.255 8.75797C126.656 8.75797 126.108 8.91356 125.61 9.22474C125.12 9.52814 124.727 9.93656 124.431 10.45C124.143 10.9635 124 11.5352 124 12.1654C124 12.7955 124.147 13.3673 124.443 13.8808C124.739 14.3942 125.131 14.8026 125.622 15.106C126.119 15.4094 126.664 15.5611 127.255 15.5611ZM135.298 18L135.287 6.33077H138.134L138.146 7.36933C138.543 6.94924 139.017 6.61861 139.569 6.37744C140.122 6.1285 140.717 6.00403 141.355 6.00403C141.783 6.00403 142.211 6.06627 142.638 6.19074L141.518 9.06137C141.223 8.94468 140.927 8.88633 140.631 8.88633C140.172 8.88633 139.752 8.99913 139.371 9.22474C138.998 9.44256 138.698 9.74207 138.472 10.1233C138.255 10.4967 138.146 10.9129 138.146 11.3719V18H135.298Z" fill="#4A5568"/>
</svg>
