<svg width="121" height="40" viewBox="0 0 121 40" fill="none" xmlns="http://www.w3.org/2000/svg">
<rect x="1" y="0.5" width="119" height="39" rx="19.5" stroke="white"/>
<path d="M25.3384 20.3006C25.3492 19.466 25.5715 18.6476 25.9847 17.9216C26.3978 17.1957 26.9885 16.5857 27.7015 16.1486C27.2485 15.5034 26.6509 14.9725 25.9561 14.5979C25.2614 14.2234 24.4886 14.0155 23.6992 13.9909C22.0152 13.8146 20.3827 14.9957 19.5246 14.9957C18.6499 14.9957 17.3287 14.0084 15.906 14.0376C14.9857 14.0672 14.0889 14.3341 13.3028 14.8121C12.5167 15.2902 11.8682 15.9632 11.4205 16.7654C9.48105 20.1139 10.9277 25.0349 12.7855 27.7415C13.715 29.0669 14.8013 30.5473 16.2228 30.4948C17.6137 30.4373 18.1332 29.6103 19.8122 29.6103C21.4756 29.6103 21.963 30.4948 23.4133 30.4614C24.9058 30.4373 25.8462 29.1302 26.7431 27.7923C27.411 26.8479 27.9249 25.8042 28.2658 24.6998C27.3987 24.3341 26.6587 23.7219 26.1381 22.9396C25.6175 22.1573 25.3394 21.2395 25.3384 20.3006Z" fill="white"/>
<path d="M22.5991 12.2108C23.4129 11.2366 23.8138 9.98445 23.7167 8.72021C22.4734 8.85044 21.3249 9.44299 20.5001 10.3798C20.0969 10.8375 19.788 11.3699 19.5912 11.9467C19.3944 12.5235 19.3135 13.1333 19.3532 13.7412C19.9751 13.7476 20.5903 13.6132 21.1526 13.3481C21.7148 13.083 22.2094 12.6942 22.5991 12.2108Z" fill="white"/>
<path d="M42.921 27.1397H38.1743L37.0344 30.4962H35.0239L39.5199 18.0782H41.6088L46.1047 30.4962H44.06L42.921 27.1397ZM38.666 25.5909H42.4285L40.5737 20.1436H40.5218L38.666 25.5909Z" fill="white"/>
<path d="M55.8145 25.9698C55.8145 28.7833 54.3045 30.5909 52.0256 30.5909C51.4484 30.621 50.8742 30.4884 50.369 30.2082C49.8638 29.9281 49.4479 29.5118 49.169 29.0069H49.1259V33.4913H47.2623V21.4424H49.0662V22.9483H49.1004C49.3922 22.4458 49.8151 22.0316 50.3242 21.7498C50.8332 21.4679 51.4094 21.329 51.9913 21.3477C54.2956 21.3477 55.8145 23.1641 55.8145 25.9698ZM53.899 25.9698C53.899 24.1368 52.9491 22.9317 51.4997 22.9317C50.0758 22.9317 49.1181 24.1622 49.1181 25.9698C49.1181 27.794 50.0758 29.0157 51.4997 29.0157C52.9491 29.0157 53.899 27.8194 53.899 25.9698Z" fill="white"/>
<path d="M65.8074 25.9698C65.8074 28.7833 64.2973 30.5909 62.0184 30.5909C61.4412 30.621 60.8671 30.4884 60.3619 30.2082C59.8566 29.9281 59.4408 29.5118 59.1618 29.0069H59.1187V33.4913H57.2551V21.4424H59.0589V22.9483H59.0932C59.385 22.4458 59.8079 22.0316 60.317 21.7498C60.826 21.468 61.4022 21.329 61.9841 21.3477C64.2885 21.3477 65.8074 23.1641 65.8074 25.9698ZM63.8918 25.9698C63.8918 24.1368 62.9419 22.9317 61.4925 22.9317C60.0686 22.9317 59.1109 24.1622 59.1109 25.9698C59.1109 27.794 60.0686 29.0157 61.4925 29.0157C62.9419 29.0157 63.8918 27.8194 63.8918 25.9698Z" fill="white"/>
<path d="M72.4118 27.0362C72.5499 28.2676 73.7495 29.0762 75.3889 29.0762C76.9597 29.0762 78.0898 28.2676 78.0898 27.1572C78.0898 26.1934 77.4082 25.6162 75.7943 25.2207L74.1804 24.833C71.8938 24.2822 70.8322 23.2158 70.8322 21.4854C70.8322 19.3428 72.7046 17.8711 75.3634 17.8711C77.9948 17.8711 79.7987 19.3428 79.8594 21.4854H77.9781C77.8655 20.2461 76.8382 19.4981 75.337 19.4981C73.8357 19.4981 72.8084 20.2549 72.8084 21.3565C72.8084 22.2344 73.4645 22.751 75.0696 23.1465L76.4416 23.4824C78.9966 24.0849 80.0582 25.1084 80.0582 26.9248C80.0582 29.248 78.2024 30.7031 75.2508 30.7031C72.4891 30.7031 70.6245 29.2822 70.5041 27.0361L72.4118 27.0362Z" fill="white"/>
<path d="M84.0802 19.2999V21.4424H85.8067V22.9141H84.0802V27.9053C84.0802 28.6807 84.4259 29.042 85.1848 29.042C85.3898 29.0385 85.5944 29.0241 85.7979 28.999V30.4619C85.4567 30.5255 85.1098 30.5543 84.7628 30.5479C82.9246 30.5479 82.2078 29.8594 82.2078 28.1035V22.9141H80.8877V21.4424H82.2077V19.2999H84.0802Z" fill="white"/>
<path d="M86.8066 25.9698C86.8066 23.1212 88.4891 21.3311 91.1126 21.3311C93.745 21.3311 95.4196 23.1211 95.4196 25.9698C95.4196 28.8262 93.7538 30.6085 91.1126 30.6085C88.4724 30.6085 86.8066 28.8262 86.8066 25.9698ZM93.5207 25.9698C93.5207 24.0157 92.6227 22.8624 91.1126 22.8624C89.6025 22.8624 88.7055 24.0245 88.7055 25.9698C88.7055 27.9317 89.6025 29.0762 91.1126 29.0762C92.6227 29.0762 93.5207 27.9317 93.5207 25.9698Z" fill="white"/>
<path d="M96.9561 21.4424H98.7335V22.9834H98.7766C98.8969 22.5021 99.1796 22.0768 99.5773 21.7789C99.9751 21.481 100.463 21.3288 100.96 21.3477C101.175 21.3469 101.389 21.3702 101.599 21.417V23.1553C101.328 23.0727 101.045 23.0348 100.762 23.043C100.491 23.0321 100.221 23.0797 99.9705 23.1825C99.7199 23.2854 99.4947 23.4412 99.3102 23.6391C99.1257 23.8369 98.9863 24.0723 98.9017 24.329C98.817 24.5856 98.789 24.8575 98.8197 25.126V30.4961H96.9561L96.9561 21.4424Z" fill="white"/>
<path d="M110.191 27.837C109.941 29.4805 108.336 30.6084 106.282 30.6084C103.641 30.6084 102.001 28.8438 102.001 26.0127C102.001 23.1729 103.65 21.3311 106.204 21.3311C108.716 21.3311 110.295 23.0518 110.295 25.7969V26.4336H103.883V26.5459C103.853 26.8791 103.895 27.2148 104.005 27.5307C104.116 27.8465 104.293 28.1353 104.524 28.3778C104.755 28.6204 105.035 28.8111 105.345 28.9374C105.656 29.0637 105.99 29.1227 106.325 29.1104C106.765 29.1515 107.207 29.0498 107.585 28.8204C107.963 28.591 108.256 28.246 108.422 27.837L110.191 27.837ZM103.892 25.1348H108.431C108.447 24.8352 108.402 24.5354 108.297 24.2542C108.192 23.973 108.03 23.7165 107.821 23.5007C107.611 23.2849 107.36 23.1146 107.082 23.0004C106.803 22.8861 106.504 22.8305 106.204 22.837C105.9 22.8352 105.599 22.8933 105.319 23.008C105.038 23.1228 104.782 23.2919 104.567 23.5055C104.353 23.7191 104.182 23.9731 104.066 24.2527C103.95 24.5324 103.891 24.8322 103.892 25.1348Z" fill="white"/>
<path d="M38.4323 8.73101C38.823 8.70305 39.2151 8.76191 39.5802 8.90334C39.9454 9.04478 40.2745 9.26526 40.5438 9.54888C40.8131 9.83251 41.016 10.1722 41.1377 10.5435C41.2595 10.9147 41.2971 11.3083 41.2478 11.6959C41.2478 13.6021 40.2147 14.6979 38.4323 14.6979H36.271V8.73101H38.4323ZM37.2003 13.854H38.3285C38.6077 13.8707 38.8871 13.825 39.1464 13.7204C39.4056 13.6158 39.6382 13.4548 39.8273 13.2493C40.0163 13.0437 40.1569 12.7987 40.239 12.5321C40.3211 12.2655 40.3426 11.9839 40.3018 11.708C40.3396 11.4332 40.316 11.1534 40.2326 10.8887C40.1493 10.6241 40.0083 10.3811 39.8197 10.1771C39.6311 9.97321 39.3996 9.81341 39.1418 9.70917C38.884 9.60493 38.6063 9.55885 38.3285 9.57422H37.2003V13.854Z" fill="white"/>
<path d="M42.2976 12.4444C42.2692 12.1484 42.3032 11.8499 42.3973 11.5678C42.4914 11.2857 42.6436 11.0264 42.8441 10.8064C43.0446 10.5864 43.289 10.4107 43.5616 10.2904C43.8342 10.1701 44.129 10.108 44.4271 10.108C44.7252 10.108 45.02 10.1701 45.2927 10.2904C45.5653 10.4107 45.8097 10.5864 46.0102 10.8064C46.2107 11.0264 46.3629 11.2857 46.457 11.5678C46.5511 11.8499 46.585 12.1484 46.5566 12.4444C46.5855 12.7406 46.552 13.0396 46.4581 13.3221C46.3643 13.6046 46.2122 13.8644 46.0116 14.0848C45.8111 14.3053 45.5665 14.4814 45.2936 14.6019C45.0207 14.7225 44.7256 14.7847 44.4271 14.7847C44.1287 14.7847 43.8335 14.7225 43.5606 14.6019C43.2877 14.4814 43.0432 14.3053 42.8426 14.0848C42.642 13.8644 42.49 13.6046 42.3961 13.3221C42.3022 13.0396 42.2687 12.7406 42.2976 12.4444ZM45.64 12.4444C45.64 11.4683 45.2003 10.8975 44.4286 10.8975C43.654 10.8975 43.2182 11.4683 43.2182 12.4444C43.2182 13.4283 43.654 13.9947 44.4286 13.9947C45.2003 13.9946 45.64 13.4243 45.64 12.4444Z" fill="white"/>
<path d="M52.218 14.6978H51.2935L50.3602 11.3814H50.2897L49.3604 14.6978H48.4447L47.2 10.1948H48.1039L48.9128 13.6308H48.9794L49.9078 10.1948H50.7627L51.6911 13.6308H51.7616L52.5666 10.1948H53.4578L52.218 14.6978Z" fill="white"/>
<path d="M54.5047 10.1948H55.3625V10.9102H55.4291C55.5421 10.6532 55.7326 10.4379 55.9742 10.2941C56.2157 10.1503 56.4962 10.0852 56.7766 10.1079C56.9964 10.0914 57.217 10.1245 57.4221 10.2046C57.6273 10.2847 57.8118 10.4098 57.9619 10.5706C58.112 10.7315 58.2239 10.9239 58.2893 11.1337C58.3546 11.3436 58.3719 11.5654 58.3396 11.7827V14.6977H57.4484V12.0059C57.4484 11.2822 57.1331 10.9224 56.474 10.9224C56.3249 10.9154 56.1759 10.9408 56.0375 10.9966C55.8991 11.0524 55.7744 11.1374 55.6719 11.2458C55.5695 11.3542 55.4918 11.4834 55.4442 11.6245C55.3965 11.7657 55.38 11.9154 55.3958 12.0635V14.6978H54.5046L54.5047 10.1948Z" fill="white"/>
<path d="M59.7596 8.43701H60.6508V14.6978H59.7596V8.43701Z" fill="white"/>
<path d="M61.8896 12.4444C61.8612 12.1484 61.8952 11.8498 61.9893 11.5677C62.0834 11.2857 62.2356 11.0263 62.4362 10.8063C62.6367 10.5863 62.8811 10.4106 63.1537 10.2903C63.4264 10.17 63.7212 10.1079 64.0193 10.1079C64.3174 10.1079 64.6123 10.17 64.8849 10.2903C65.1575 10.4106 65.402 10.5863 65.6025 10.8063C65.803 11.0263 65.9552 11.2857 66.0493 11.5677C66.1435 11.8498 66.1774 12.1484 66.1491 12.4444C66.178 12.7406 66.1444 13.0396 66.0505 13.3221C65.9566 13.6046 65.8045 13.8644 65.6039 14.0848C65.4033 14.3052 65.1588 14.4814 64.8859 14.6019C64.613 14.7224 64.3178 14.7847 64.0193 14.7847C63.7209 14.7847 63.4257 14.7224 63.1528 14.6019C62.8799 14.4814 62.6353 14.3052 62.4347 14.0848C62.2341 13.8644 62.082 13.6046 61.9881 13.3221C61.8943 13.0396 61.8607 12.7406 61.8896 12.4444ZM65.2319 12.4444C65.2319 11.4683 64.7922 10.8975 64.0205 10.8975C63.2459 10.8975 62.8102 11.4683 62.8102 12.4444C62.8102 13.4283 63.2459 13.9947 64.0205 13.9947C64.7922 13.9946 65.2319 13.4243 65.2319 12.4444Z" fill="white"/>
<path d="M67.0872 13.4243C67.0872 12.6138 67.6925 12.1465 68.7667 12.0801L69.9899 12.0098V11.6211C69.9899 11.1455 69.6746 10.877 69.0654 10.877C68.568 10.877 68.2232 11.0591 68.1243 11.3775H67.2616C67.3526 10.604 68.0822 10.1079 69.1066 10.1079C70.2386 10.1079 70.8772 10.6699 70.8772 11.6211V14.6978H70.0193V14.065H69.9488C69.8057 14.292 69.6047 14.477 69.3664 14.6012C69.1281 14.7254 68.861 14.7843 68.5924 14.772C68.4029 14.7916 68.2113 14.7715 68.03 14.7128C67.8487 14.6541 67.6818 14.5581 67.54 14.4312C67.3982 14.3042 67.2846 14.149 67.2066 13.9756C67.1287 13.8022 67.088 13.6144 67.0872 13.4243ZM69.9899 13.0396V12.6631L68.8872 12.7334C68.2653 12.7749 67.9833 12.9859 67.9833 13.3828C67.9833 13.7881 68.3358 14.0239 68.8206 14.0239C68.9627 14.0383 69.1062 14.024 69.2426 13.9819C69.3789 13.9398 69.5054 13.8708 69.6145 13.7789C69.7236 13.6871 69.8131 13.5743 69.8776 13.4473C69.942 13.3203 69.9803 13.1816 69.9899 13.0396Z" fill="white"/>
<path d="M72.0484 12.4444C72.0484 11.0215 72.7819 10.1201 73.9228 10.1201C74.205 10.1072 74.4851 10.1746 74.7303 10.3145C74.9755 10.4544 75.1757 10.661 75.3075 10.9101H75.3741V8.43701H76.2653V14.6978H75.4113V13.9863H75.3408C75.1988 14.2338 74.9916 14.4378 74.7417 14.5763C74.4917 14.7148 74.2085 14.7825 73.9228 14.772C72.7741 14.772 72.0484 13.8706 72.0484 12.4444ZM72.969 12.4444C72.969 13.3994 73.4204 13.9741 74.1755 13.9741C74.9266 13.9741 75.3908 13.3911 75.3908 12.4483C75.3908 11.5098 74.9217 10.9185 74.1755 10.9185C73.4253 10.9185 72.969 11.4971 72.969 12.4444Z" fill="white"/>
<path d="M79.9524 12.4444C79.924 12.1484 79.9579 11.8499 80.052 11.5678C80.1461 11.2857 80.2983 11.0264 80.4988 10.8064C80.6993 10.5864 80.9437 10.4107 81.2163 10.2904C81.4889 10.1701 81.7837 10.108 82.0819 10.108C82.38 10.108 82.6748 10.1701 82.9474 10.2904C83.22 10.4107 83.4644 10.5864 83.6649 10.8064C83.8654 11.0264 84.0176 11.2857 84.1117 11.5678C84.2058 11.8499 84.2397 12.1484 84.2113 12.4444C84.2403 12.7406 84.2067 13.0396 84.1129 13.3221C84.019 13.6046 83.8669 13.8644 83.6664 14.0848C83.4658 14.3053 83.2212 14.4814 82.9484 14.6019C82.6755 14.7225 82.3803 14.7847 82.0819 14.7847C81.7834 14.7847 81.4882 14.7225 81.2153 14.6019C80.9425 14.4814 80.6979 14.3053 80.4973 14.0848C80.2968 13.8644 80.1447 13.6046 80.0508 13.3221C79.957 13.0396 79.9234 12.7406 79.9524 12.4444ZM83.2947 12.4444C83.2947 11.4683 82.855 10.8975 82.0833 10.8975C81.3087 10.8975 80.8729 11.4683 80.8729 12.4444C80.8729 13.4283 81.3087 13.9947 82.0833 13.9947C82.855 13.9946 83.2947 13.4243 83.2947 12.4444Z" fill="white"/>
<path d="M85.4071 10.1948H86.2649V10.9102H86.3315C86.4445 10.6532 86.635 10.4379 86.8766 10.2941C87.1181 10.1503 87.3987 10.0852 87.6791 10.1079C87.8988 10.0914 88.1194 10.1245 88.3246 10.2046C88.5297 10.2847 88.7142 10.4098 88.8643 10.5706C89.0144 10.7315 89.1263 10.9239 89.1917 11.1337C89.2571 11.3436 89.2743 11.5654 89.242 11.7827V14.6977H88.3509V12.0059C88.3509 11.2822 88.0355 10.9224 87.3765 10.9224C87.2273 10.9154 87.0784 10.9408 86.9399 10.9966C86.8015 11.0524 86.6768 11.1374 86.5744 11.2458C86.472 11.3542 86.3943 11.4834 86.3466 11.6245C86.2989 11.7657 86.2824 11.9154 86.2982 12.0635V14.6978H85.4071V10.1948Z" fill="white"/>
<path d="M94.2776 9.07374V10.2153H95.256V10.9639H94.2776V13.2793C94.2776 13.751 94.4725 13.9575 94.9161 13.9575C95.0297 13.9572 95.1432 13.9503 95.256 13.937V14.6773C95.0959 14.7058 94.9338 14.721 94.7712 14.7227C93.7801 14.7227 93.3855 14.375 93.3855 13.5068V10.9638H92.6686V10.2153H93.3855V9.07374H94.2776Z" fill="white"/>
<path d="M96.4732 8.43701H97.3565V10.9185H97.4271C97.5455 10.6591 97.7413 10.4425 97.9877 10.2982C98.2341 10.1539 98.5191 10.0888 98.8039 10.1118C99.0225 10.1 99.241 10.1364 99.4438 10.2184C99.6467 10.3004 99.8289 10.4261 99.9774 10.5864C100.126 10.7468 100.237 10.9378 100.303 11.146C100.369 11.3541 100.388 11.5742 100.359 11.7905V14.6978H99.467V12.0098C99.467 11.2905 99.131 10.9263 98.5014 10.9263C98.3482 10.9137 98.1942 10.9347 98.05 10.9878C97.9058 11.0408 97.775 11.1247 97.6667 11.2334C97.5584 11.3421 97.4752 11.4732 97.423 11.6173C97.3708 11.7614 97.3508 11.9152 97.3644 12.0679V14.6977H96.4733L96.4732 8.43701Z" fill="white"/>
<path d="M105.555 13.4819C105.434 13.8935 105.172 14.2495 104.814 14.4876C104.456 14.7258 104.026 14.8309 103.599 14.7847C103.301 14.7925 103.005 14.7357 102.732 14.6182C102.459 14.5006 102.215 14.3252 102.016 14.1041C101.818 13.8829 101.67 13.6214 101.583 13.3376C101.496 13.0537 101.472 12.7544 101.513 12.4605C101.473 12.1656 101.497 11.8656 101.584 11.581C101.671 11.2963 101.818 11.0335 102.015 10.8105C102.213 10.5874 102.456 10.4092 102.728 10.288C103.001 10.1668 103.296 10.1054 103.595 10.1079C104.851 10.1079 105.609 10.9639 105.609 12.3779V12.688H102.421V12.7378C102.407 12.9031 102.427 13.0694 102.482 13.2261C102.536 13.3829 102.622 13.5266 102.736 13.6481C102.849 13.7695 102.986 13.866 103.139 13.9314C103.292 13.9968 103.457 14.0297 103.623 14.0278C103.836 14.0533 104.052 14.0151 104.244 13.9178C104.435 13.8206 104.593 13.6689 104.697 13.4819L105.555 13.4819ZM102.421 12.0308H104.701C104.713 11.8796 104.692 11.7278 104.641 11.5851C104.59 11.4424 104.509 11.3119 104.405 11.2021C104.3 11.0922 104.173 11.0054 104.033 10.9472C103.893 10.8891 103.742 10.8608 103.59 10.8643C103.436 10.8623 103.283 10.8912 103.14 10.9491C102.997 11.0071 102.867 11.0929 102.758 11.2017C102.65 11.3104 102.563 11.4397 102.505 11.5821C102.447 11.7245 102.418 11.8771 102.421 12.0308Z" fill="white"/>
</svg>
