<svg width="44" height="44" viewBox="0 0 44 44" fill="none" xmlns="http://www.w3.org/2000/svg">
<path d="M2 22C2 10.9543 10.9543 2 22 2C33.0457 2 42 10.9543 42 22C42 33.0457 33.0457 42 22 42C10.9543 42 2 33.0457 2 22Z" fill="white"/>
<path d="M2 22C2 10.9543 10.9543 2 22 2C33.0457 2 42 10.9543 42 22C42 33.0457 33.0457 42 22 42C10.9543 42 2 33.0457 2 22Z" stroke="#008B3A" stroke-width="3"/>
<path d="M8.09994 27.2614V19.5795H9.62835V27.2614H8.09994ZM5.02607 24.1818V22.6534H12.7079V24.1818H5.02607ZM19.5518 16.3636V28H17.7904V18.125H17.7222L14.9381 19.9432V18.2614L17.8416 16.3636H19.5518ZM26.5746 28.1932C25.6769 28.1894 24.9099 27.9527 24.2735 27.483C23.6371 27.0133 23.1504 26.3295 22.8133 25.4318C22.4762 24.5341 22.3076 23.4527 22.3076 22.1875C22.3076 20.9261 22.4762 19.8485 22.8133 18.9545C23.1542 18.0606 23.6428 17.3788 24.2792 16.9091C24.9193 16.4394 25.6845 16.2045 26.5746 16.2045C27.4648 16.2045 28.2281 16.4413 28.8644 16.9148C29.5008 17.3845 29.9875 18.0663 30.3246 18.9602C30.6656 19.8504 30.836 20.9261 30.836 22.1875C30.836 23.4564 30.6674 24.5398 30.3303 25.4375C29.9932 26.3314 29.5065 27.0152 28.8701 27.4886C28.2337 27.9583 27.4686 28.1932 26.5746 28.1932ZM26.5746 26.6761C27.3625 26.6761 27.9781 26.2917 28.4212 25.5227C28.8682 24.7538 29.0917 23.642 29.0917 22.1875C29.0917 21.2216 28.9894 20.4053 28.7849 19.7386C28.5841 19.0682 28.2943 18.5606 27.9156 18.2159C27.5406 17.8674 27.0936 17.6932 26.5746 17.6932C25.7906 17.6932 25.175 18.0795 24.7281 18.8523C24.2811 19.625 24.0557 20.7367 24.0519 22.1875C24.0519 23.1572 24.1523 23.9773 24.3531 24.6477C24.5576 25.3144 24.8474 25.8201 25.2224 26.1648C25.5974 26.5057 26.0481 26.6761 26.5746 26.6761ZM34.2609 25.0398L34.2495 22.9659H34.5449L38.0222 19.2727H40.0563L36.0904 23.4773H35.8234L34.2609 25.0398ZM32.6984 28V16.3636H34.3972V28H32.6984ZM38.2097 28L35.0847 23.8523L36.2552 22.6648L40.2949 28H38.2097Z" fill="#681219"/>
</svg>
