<svg width="154" height="35" viewBox="0 0 154 35" fill="none" xmlns="http://www.w3.org/2000/svg">
<g clip-path="url(#clip0_3145_1187)">
<path d="M21.8983 3.76416H1.26249C0.603901 3.76416 0.000194889 4.44416 0.000194889 5.32816V8.18416C0.000194889 9.06816 0.603901 9.81616 1.26249 9.81616H21.8983C22.6117 9.81616 23.1606 9.06816 23.2154 8.18416V5.39616C23.2154 4.44416 22.6117 3.76416 21.8983 3.76416ZM21.8983 19.8122H1.26249C0.933195 19.8122 0.603901 20.0162 0.329489 20.2882C0.10996 20.5602 -0.0546875 20.9682 -0.0546875 21.4442V24.3002C-0.0546875 25.1842 0.549019 25.9322 1.20761 25.9322H21.8434C22.5569 25.9322 23.1057 25.2522 23.1606 24.3002V21.4442C23.2154 20.4922 22.6117 19.8122 21.8983 19.8122ZM12.8976 27.7682H1.26249C0.933195 27.7682 0.603901 27.9042 0.384372 28.2442C0.164842 28.5162 0.000194889 28.9242 0.000194889 29.4002V32.2562C0.000194889 33.1402 0.603901 33.8882 1.26249 33.8882H12.8427C13.5561 33.8882 14.105 33.1402 14.105 32.2562V29.3322C14.1599 28.5162 13.611 27.7682 12.8976 27.7682ZM23.2154 11.7882H1.26249C0.933195 11.7882 0.603901 11.9242 0.384372 12.2642C0.164842 12.5362 0.000194889 12.9442 0.000194889 13.4202V16.2762C0.000194889 17.1602 0.603901 17.9082 1.26249 17.9082H23.1606C23.874 17.9082 24.4229 17.1602 24.4229 16.2762V13.4202C24.4777 12.4682 23.9289 11.7882 23.2154 11.7882Z" fill="#00C3F7"/>
<path d="M47.1989 10.224C46.5403 9.408 45.8269 8.796 44.9487 8.32C44.1255 7.844 43.1925 7.64 42.2595 7.64C41.3814 7.64 40.5033 7.844 39.68 8.32C39.1312 8.66 38.6373 9.068 38.2531 9.612V9.136C38.2531 8.864 38.1433 8.66 38.0336 8.456C37.8689 8.252 37.7043 8.116 37.4847 8.116H34.576C34.3564 8.116 34.1369 8.252 34.0271 8.456C33.8625 8.66 33.8076 8.864 33.8076 9.136V32.936C33.8076 33.208 33.9174 33.412 34.0271 33.616C34.1918 33.82 34.3564 33.888 34.576 33.888H37.4847C37.7043 33.888 37.8689 33.82 38.0336 33.616C38.1982 33.412 38.2531 33.208 38.2531 32.936V24.776C38.6921 25.32 39.1861 25.796 39.7898 26C40.5582 26.34 41.3814 26.544 42.1497 26.544C43.0827 26.544 44.0157 26.34 44.839 25.864C45.7171 25.456 46.4855 24.776 47.0892 23.96C47.7477 23.076 48.2966 22.056 48.6259 20.968C49.01 19.744 49.2296 18.384 49.1747 17.092C49.1747 15.732 49.01 14.44 48.6259 13.148C48.4063 12.128 47.8575 11.108 47.1989 10.224ZM44.6195 18.86C44.4548 19.336 44.2353 19.812 43.9609 20.22C43.3572 21.036 42.5339 21.444 41.6558 21.444C41.2167 21.444 40.7777 21.308 40.3935 21.104C40.0093 20.9 39.6251 20.56 39.3507 20.22C39.0763 19.812 38.8019 19.336 38.6373 18.86C38.308 17.772 38.308 16.616 38.6373 15.528C38.8019 15.052 39.0214 14.576 39.3507 14.168C39.68 13.76 40.0093 13.488 40.3935 13.216C40.7777 13.012 41.2167 12.876 41.6558 12.876C42.0949 12.876 42.5339 13.012 42.973 13.216C43.3572 13.42 43.6864 13.76 44.0157 14.1C44.2902 14.508 44.5097 14.916 44.6743 15.46C44.9487 16.548 44.9487 17.772 44.6195 18.86ZM65.0357 8.184H62.1269C61.9074 8.184 61.7428 8.32 61.5781 8.456C61.4135 8.66 61.3586 8.932 61.3586 9.204V9.612C60.9744 9.068 60.5353 8.66 60.0414 8.388C59.273 7.912 58.3949 7.708 57.5168 7.708C55.6508 7.708 53.8397 8.66 52.5225 10.292C51.8639 11.176 51.3151 12.196 50.9309 13.284C50.4919 14.508 50.3272 15.868 50.3272 17.228C50.3272 18.588 50.4919 19.948 50.9309 21.172C51.3151 22.26 51.8639 23.28 52.5225 24.164C53.8397 25.796 55.5959 26.748 57.4619 26.748C58.34 26.748 59.2182 26.544 59.9865 26.068C60.4805 25.728 60.9744 25.32 61.3037 24.844V25.32C61.3037 25.592 61.4135 25.796 61.5232 26C61.6879 26.136 61.8525 26.272 62.072 26.272H64.9808C65.2003 26.272 65.365 26.136 65.5296 26C65.6943 25.796 65.7492 25.592 65.7492 25.32V9.204C65.7492 8.932 65.6943 8.728 65.5296 8.524C65.4199 8.252 65.2552 8.184 65.0357 8.184ZM61.0842 18.792C60.9195 19.268 60.7 19.744 60.4256 20.152C60.1512 20.492 59.767 20.832 59.3828 21.104C58.5596 21.58 57.6266 21.58 56.8033 21.104C56.4192 20.9 56.035 20.56 55.7606 20.152C55.4862 19.744 55.2118 19.268 55.102 18.792C54.7727 17.704 54.7727 16.548 55.102 15.46C55.2666 14.984 55.4862 14.508 55.7606 14.1C56.035 13.692 56.4192 13.42 56.8033 13.148C57.6266 12.672 58.5596 12.672 59.3828 13.148C59.767 13.352 60.0963 13.692 60.4256 14.032C60.7 14.44 60.9195 14.848 61.0842 15.392C61.4683 16.548 61.4683 17.772 61.0842 18.792ZM93.9587 16.684C93.5197 16.208 93.0806 15.868 92.5318 15.596C91.983 15.324 91.4341 15.12 90.8304 14.984L88.6351 14.44C88.0863 14.304 87.6472 14.1 87.4277 13.896C87.2631 13.76 87.1533 13.488 87.1533 13.216C87.1533 12.944 87.2631 12.672 87.5924 12.468C87.9765 12.196 88.4156 12.06 88.7998 12.128C89.3486 12.128 89.9523 12.264 90.4462 12.536C90.9402 12.808 91.4341 13.148 91.8732 13.488C92.5318 13.964 93.0806 13.896 93.4648 13.352L94.5075 11.856C94.7271 11.584 94.8368 11.244 94.8368 10.904C94.8368 10.564 94.6722 10.156 94.4527 9.952C94.0136 9.476 93.3001 8.932 92.3122 8.456C91.3792 7.98 90.1718 7.708 88.7449 7.708C87.8668 7.708 87.0435 7.844 86.2203 8.184C85.5068 8.456 84.8482 8.864 84.2994 9.408C83.7506 9.884 83.3664 10.564 83.0371 11.312C82.7627 12.06 82.5981 12.808 82.5981 13.624C82.5981 15.12 82.9822 16.344 83.6957 17.228C84.4092 18.112 85.3422 18.724 86.5496 18.996L88.8547 19.608C89.3486 19.744 89.8425 19.88 90.3365 20.152C90.6109 20.288 90.7755 20.56 90.7755 20.968C90.7755 21.308 90.6658 21.58 90.3365 21.852C90.0621 22.124 89.5681 22.26 88.9644 22.26C88.3607 22.26 87.7021 22.124 87.1533 21.784C86.6045 21.444 86.1105 21.036 85.6715 20.56C85.452 20.356 85.2324 20.22 85.0129 20.084C84.7385 20.016 84.4092 20.084 84.0799 20.424L82.8176 21.648C82.4883 21.988 82.2688 22.532 82.3785 23.008C82.4334 23.552 82.8176 24.028 83.4213 24.64C85.0129 26 86.9338 26.68 88.8547 26.612C89.7328 26.612 90.6658 26.476 91.489 26.136C92.2574 25.864 92.9159 25.456 93.5197 24.844C94.0685 24.3 94.5624 23.62 94.8368 22.872C95.1661 22.124 95.2759 21.308 95.2759 20.424C95.2759 19.676 95.1661 18.928 94.8917 18.18C94.6722 17.704 94.3429 17.16 93.9587 16.684ZM106.582 21.036C106.472 20.764 106.197 20.56 105.923 20.492C105.649 20.492 105.374 20.628 105.155 20.764C104.825 21.036 104.386 21.24 103.947 21.24C103.838 21.24 103.673 21.24 103.508 21.172C103.344 21.172 103.234 21.036 103.124 20.9C103.014 20.764 102.905 20.56 102.795 20.356C102.685 20.084 102.63 19.744 102.685 19.404V12.876H106.472C106.691 12.876 106.911 12.74 107.076 12.536C107.24 12.332 107.35 12.128 107.35 11.856V9.068C107.35 8.796 107.24 8.524 107.076 8.388C106.911 8.184 106.746 8.116 106.527 8.116H102.74V3.696C102.74 3.424 102.685 3.152 102.52 3.016C102.356 2.812 102.191 2.744 101.972 2.744H99.0628C98.8432 2.744 98.6237 2.812 98.514 3.016C98.3493 3.22 98.2944 3.492 98.2944 3.696V8.184H96.648C96.4284 8.184 96.2089 8.32 96.0991 8.524C95.9345 8.728 95.8796 8.932 95.8796 9.204V11.992C95.8796 12.264 95.9345 12.468 96.0991 12.672C96.2089 12.876 96.4284 13.012 96.648 13.012H98.2944V20.764C98.2944 21.716 98.4042 22.6 98.7335 23.416C99.0079 24.096 99.3921 24.708 99.8311 25.184C100.27 25.66 100.819 26 101.423 26.204C102.026 26.408 102.63 26.544 103.234 26.544C104.057 26.544 104.825 26.408 105.594 26.068C106.307 25.796 106.966 25.252 107.46 24.64C107.789 24.232 107.844 23.552 107.57 23.076L106.582 21.036ZM122.498 8.184H119.589C119.369 8.184 119.205 8.32 119.04 8.456C118.875 8.66 118.82 8.932 118.82 9.204V9.612C118.436 9.068 117.997 8.66 117.503 8.388C116.735 7.912 115.857 7.708 114.979 7.708C113.113 7.708 111.356 8.66 110.039 10.292C109.381 11.176 108.832 12.196 108.448 13.284C108.009 14.508 107.844 15.868 107.844 17.16C107.844 18.52 108.009 19.812 108.448 21.104C108.832 22.192 109.381 23.212 110.039 24.096C111.356 25.728 113.113 26.68 114.979 26.68C115.857 26.68 116.735 26.476 117.503 26C117.997 25.66 118.491 25.252 118.82 24.776V25.252C118.82 25.524 118.875 25.728 119.04 25.932C119.205 26.136 119.369 26.204 119.589 26.204H122.498C122.937 26.204 123.266 25.796 123.266 25.252V9.204C123.266 8.932 123.211 8.728 123.046 8.524C122.882 8.252 122.717 8.184 122.498 8.184ZM118.546 18.792C118.381 19.268 118.162 19.744 117.887 20.152C117.558 20.492 117.229 20.832 116.845 21.104C116.46 21.308 115.967 21.444 115.527 21.444C115.088 21.444 114.649 21.308 114.265 21.104C113.881 20.9 113.497 20.56 113.222 20.152C112.948 19.744 112.674 19.268 112.564 18.792C112.235 17.704 112.235 16.548 112.564 15.46C112.728 14.984 112.948 14.508 113.222 14.1C113.552 13.692 113.881 13.42 114.265 13.148C114.649 12.944 115.088 12.808 115.527 12.808C115.967 12.808 116.406 12.944 116.845 13.148C117.229 13.352 117.558 13.692 117.887 14.032C118.162 14.44 118.436 14.848 118.546 15.392C118.93 16.548 118.93 17.772 118.546 18.792ZM138.413 20.764L136.767 19.2C136.438 18.86 136.163 18.792 135.889 18.928C135.669 19.064 135.45 19.268 135.285 19.472C134.901 20.016 134.517 20.492 134.023 20.9C133.529 21.24 132.98 21.444 132.376 21.376C131.718 21.376 131.114 21.172 130.565 20.696C130.016 20.22 129.632 19.54 129.413 18.792C129.248 18.248 129.193 17.704 129.193 17.16C129.193 16.616 129.248 16.004 129.413 15.46C129.577 14.984 129.797 14.508 130.071 14.1C130.401 13.692 130.73 13.42 131.114 13.216C131.498 13.012 131.992 12.876 132.431 12.876C132.98 12.876 133.584 13.012 134.023 13.352C134.517 13.76 134.901 14.236 135.285 14.78C135.45 14.984 135.669 15.188 135.889 15.324C136.163 15.46 136.438 15.392 136.767 15.052L138.413 13.488C138.633 13.284 138.798 13.08 138.853 12.808C138.962 12.468 138.907 12.128 138.798 11.856C138.139 10.632 137.261 9.612 136.218 8.864C135.121 8.116 133.803 7.708 132.322 7.708C131.279 7.708 130.236 7.98 129.303 8.456C128.37 8.932 127.547 9.612 126.833 10.496C126.12 11.38 125.571 12.4 125.187 13.488C124.418 15.868 124.418 18.588 125.187 20.968C125.571 22.124 126.12 23.144 126.833 23.96C128.315 25.728 130.236 26.68 132.322 26.68C133.803 26.68 135.121 26.272 136.218 25.524C137.261 24.776 138.139 23.756 138.798 22.532C138.962 22.26 138.962 21.92 138.853 21.58C138.743 21.24 138.578 20.968 138.413 20.764ZM153.835 24.504L149.28 16.14L153.177 9.748C153.341 9.476 153.396 9.068 153.341 8.728C153.287 8.456 153.067 8.184 152.628 8.184H149.555C149.39 8.184 149.225 8.252 149.061 8.32C148.841 8.456 148.731 8.592 148.622 8.864L145.493 14.304H144.725V1.452C144.725 1.18 144.67 0.976 144.505 0.772C144.341 0.568 144.176 0.5 143.957 0.5H141.048C140.828 0.5 140.664 0.568 140.499 0.772C140.334 0.976 140.279 1.18 140.279 1.452V25.116C140.279 25.388 140.389 25.66 140.499 25.796C140.664 26 140.828 26.068 141.048 26.068H143.957C144.176 26.068 144.341 25.932 144.505 25.796C144.67 25.592 144.725 25.388 144.725 25.116V18.86H145.548L148.951 25.388C149.17 25.864 149.555 26.136 149.939 26.136H153.177C153.671 26.136 153.89 25.864 153.945 25.592C154.055 25.252 154 24.844 153.835 24.504ZM81.5004 8.184H78.2624C78.0428 8.184 77.7684 8.252 77.6038 8.524C77.4391 8.728 77.3293 8.932 77.3293 9.204L74.9145 20.22H74.3108L71.7313 9.136C71.6765 8.932 71.6216 8.66 71.4569 8.456C71.2923 8.252 71.0728 8.116 70.8532 8.116H67.5054C67.0663 8.116 66.7919 8.32 66.6822 8.66C66.5724 9 66.5724 9.34 66.6822 9.612L70.7983 25.184C70.8532 25.388 70.963 25.66 71.1276 25.796C71.2923 26 71.5118 26.068 71.7313 26.068H73.4876L73.3229 26.544L72.9388 27.972C72.829 28.38 72.6095 28.788 72.2802 29.128C72.0058 29.4 71.6765 29.536 71.2923 29.536C71.0179 29.536 70.6886 29.468 70.4142 29.332C70.1398 29.196 69.8653 28.992 69.6458 28.788C69.4263 28.584 69.1519 28.516 68.9323 28.516H68.8775C68.5482 28.516 68.2738 28.72 68.164 29.06L67.1212 30.964C66.6822 31.78 66.9566 32.324 67.231 32.596C67.7798 33.208 68.4384 33.684 69.1519 34.024C69.9202 34.364 70.7435 34.5 71.6216 34.5C73.1034 34.5 74.3657 34.024 75.2987 33.004C76.2866 31.916 77.0001 30.488 77.3842 28.924L82.159 9.68C82.2688 9.34 82.2688 9 82.159 8.66C82.159 8.388 81.9395 8.184 81.5004 8.184Z" fill="#011B33"/>
</g>
<defs>
<clipPath id="clip0_3145_1187">
<rect width="154" height="34" fill="white" transform="translate(0 0.5)"/>
</clipPath>
</defs>
</svg>
