<svg width="137" height="40" viewBox="0 0 137 40" fill="none" xmlns="http://www.w3.org/2000/svg">
<rect x="1" y="0.5" width="135" height="39" rx="19.5" stroke="#A6A6A6"/>
<path d="M68.636 21.7509C66.284 21.7509 64.367 23.5399 64.367 26.0039C64.367 28.4529 66.284 30.2569 68.636 30.2569C70.989 30.2569 72.906 28.4529 72.906 26.0039C72.905 23.5399 70.988 21.7509 68.636 21.7509ZM68.636 28.5829C67.347 28.5829 66.236 27.5199 66.236 26.0049C66.236 24.4739 67.348 23.4269 68.636 23.4269C69.925 23.4269 71.036 24.4739 71.036 26.0049C71.036 27.5189 69.925 28.5829 68.636 28.5829ZM59.322 21.7509C56.97 21.7509 55.053 23.5399 55.053 26.0039C55.053 28.4529 56.97 30.2569 59.322 30.2569C61.675 30.2569 63.592 28.4529 63.592 26.0039C63.592 23.5399 61.675 21.7509 59.322 21.7509ZM59.322 28.5829C58.033 28.5829 56.922 27.5199 56.922 26.0049C56.922 24.4739 58.034 23.4269 59.322 23.4269C60.611 23.4269 61.722 24.4739 61.722 26.0049C61.723 27.5189 60.611 28.5829 59.322 28.5829ZM48.244 23.0569V24.8609H52.562C52.433 25.8759 52.095 26.6169 51.579 27.1319C50.951 27.7599 49.968 28.4529 48.244 28.4529C45.586 28.4529 43.508 26.3099 43.508 23.6519C43.508 20.9939 45.586 18.8509 48.244 18.8509C49.678 18.8509 50.725 19.4149 51.498 20.1399L52.771 18.8669C51.691 17.8359 50.258 17.0469 48.244 17.0469C44.603 17.0469 41.542 20.0109 41.542 23.6519C41.542 27.2929 44.603 30.2569 48.244 30.2569C50.209 30.2569 51.692 29.6119 52.851 28.4039C54.043 27.2119 54.414 25.5359 54.414 24.1829C54.414 23.7649 54.382 23.3779 54.317 23.0559H48.244V23.0569ZM93.552 24.4579C93.198 23.5079 92.118 21.7509 89.911 21.7509C87.72 21.7509 85.899 23.4749 85.899 26.0039C85.899 28.3879 87.704 30.2569 90.12 30.2569C92.069 30.2569 93.197 29.0649 93.665 28.3719L92.215 27.4049C91.732 28.1139 91.071 28.5809 90.12 28.5809C89.17 28.5809 88.493 28.1459 88.058 27.2919L93.745 24.9399L93.552 24.4579ZM87.752 25.8759C87.704 24.2319 89.025 23.3949 89.976 23.3949C90.717 23.3949 91.345 23.7659 91.555 24.2969L87.752 25.8759ZM83.129 29.9999H84.997V17.4989H83.129V29.9999ZM80.067 22.7019H80.003C79.584 22.2019 78.778 21.7509 77.764 21.7509C75.637 21.7509 73.688 23.6199 73.688 26.0209C73.688 28.4049 75.637 30.2579 77.764 30.2579C78.779 30.2579 79.584 29.8069 80.003 29.2919H80.067V29.9039C80.067 31.5309 79.197 32.4009 77.796 32.4009C76.652 32.4009 75.943 31.5799 75.653 30.8869L74.026 31.5639C74.493 32.6909 75.733 34.0769 77.796 34.0769C79.987 34.0769 81.84 32.7879 81.84 29.6459V22.0099H80.068V22.7019H80.067ZM77.925 28.5829C76.636 28.5829 75.557 27.5029 75.557 26.0209C75.557 24.5219 76.636 23.4269 77.925 23.4269C79.197 23.4269 80.196 24.5219 80.196 26.0209C80.196 27.5029 79.197 28.5829 77.925 28.5829ZM102.306 17.4989H97.835V29.9999H99.7V25.2639H102.305C104.373 25.2639 106.407 23.7669 106.407 21.3819C106.407 18.9969 104.374 17.4989 102.306 17.4989ZM102.354 23.5239H99.7V19.2389H102.354C103.749 19.2389 104.541 20.3939 104.541 21.3819C104.541 22.3499 103.749 23.5239 102.354 23.5239ZM113.886 21.7289C112.535 21.7289 111.136 22.3239 110.557 23.6429L112.213 24.3339C112.567 23.6429 113.227 23.4169 113.918 23.4169C114.883 23.4169 115.864 23.9959 115.88 25.0249V25.1539C115.542 24.9609 114.818 24.6719 113.934 24.6719C112.149 24.6719 110.331 25.6529 110.331 27.4859C110.331 29.1589 111.795 30.2359 113.435 30.2359C114.689 30.2359 115.381 29.6729 115.815 29.0129H115.879V29.9779H117.681V25.1849C117.682 22.9669 116.024 21.7289 113.886 21.7289ZM113.66 28.5799C113.05 28.5799 112.197 28.2739 112.197 27.5179C112.197 26.5529 113.259 26.1829 114.176 26.1829C114.995 26.1829 115.382 26.3599 115.88 26.6009C115.735 27.7599 114.738 28.5799 113.66 28.5799ZM124.243 22.0019L122.104 27.4219H122.04L119.82 22.0019H117.81L121.139 29.5769L119.241 33.7909H121.187L126.318 22.0019H124.243ZM107.437 29.9999H109.302V17.4989H107.437V29.9999Z" fill="white"/>
<path d="M10.6564 7.9665C10.5383 8.23394 10.4731 8.56159 10.4731 8.94269V31.0587C10.4731 31.4409 10.5385 31.7688 10.6569 32.0363L22.6906 20.0008L10.6564 7.9665Z" fill="white"/>
<path d="M11.352 32.7553C11.7981 32.946 12.3798 32.8854 13.0141 32.5257L27.1709 24.4811L23.3977 20.7079L11.352 32.7553Z" fill="white"/>
<path d="M28.0734 23.9693L32.5151 21.4457C33.9121 20.6507 33.9121 19.3517 32.5151 18.5577L28.072 16.033L24.1048 20.0007L28.0734 23.9693Z" fill="white"/>
<path d="M27.1702 15.5206L13.0141 7.4767C12.3795 7.11603 11.7974 7.05593 11.3513 7.24724L23.3977 19.2936L27.1702 15.5206Z" fill="white"/>
<path d="M47.9179 10.2436C47.9179 11.0816 47.67 11.7486 47.173 12.2466C46.609 12.8386 45.873 13.1346 44.969 13.1346C44.103 13.1346 43.366 12.8346 42.761 12.2346C42.155 11.6336 41.852 10.8896 41.852 10.0016C41.852 9.11258 42.155 8.36858 42.761 7.76858C43.366 7.16758 44.103 6.86758 44.969 6.86758C45.399 6.86758 45.81 6.95158 46.2 7.11858C46.591 7.28658 46.904 7.50958 47.138 7.78858L46.611 8.31658C46.214 7.84158 45.6669 7.60458 44.9679 7.60458C44.3359 7.60458 43.7899 7.82658 43.3289 8.27058C42.8679 8.71458 42.638 9.29158 42.638 10.0006C42.638 10.7096 42.8679 11.2866 43.3289 11.7306C43.7899 12.1746 44.3359 12.3966 44.9679 12.3966C45.6379 12.3966 46.197 12.1736 46.644 11.7266C46.934 11.4356 47.1019 11.0306 47.1469 10.5116H44.9679V9.79058H47.875C47.905 9.94758 47.9179 10.0986 47.9179 10.2436Z" fill="white"/>
<path d="M52.528 7.73763H49.796V9.63963H52.26V10.3606H49.796V12.2626H52.528V13.0006H49.025V7.00063H52.528V7.73763Z" fill="white"/>
<path d="M55.7789 13.0006H55.0079V7.73763H53.3319V7.00063H57.4549V7.73763H55.7789V13.0006Z" fill="white"/>
<path d="M60.4379 13.0006V7.00063H61.2089V13.0006H60.4379Z" fill="white"/>
<path d="M64.628 13.0006H63.8571V7.73763H62.1811V7.00063H66.3041V7.73763H64.628V13.0006Z" fill="white"/>
<path d="M74.1088 12.2256C73.5188 12.8316 72.7858 13.1346 71.9088 13.1346C71.0318 13.1346 70.2988 12.8316 69.7098 12.2256C69.1198 11.6196 68.8258 10.8776 68.8258 10.0006C68.8258 9.12363 69.1198 8.38162 69.7098 7.77562C70.2988 7.16962 71.0318 6.86562 71.9088 6.86562C72.7808 6.86562 73.5128 7.17062 74.1048 7.77962C74.6968 8.38862 74.9928 9.12863 74.9928 10.0006C74.9928 10.8776 74.6978 11.6196 74.1088 12.2256ZM70.2788 11.7226C70.7228 12.1726 71.2658 12.3966 71.9088 12.3966C72.5518 12.3966 73.0958 12.1716 73.5388 11.7226C73.9828 11.2726 74.2058 10.6986 74.2058 10.0006C74.2058 9.30263 73.9828 8.72863 73.5388 8.27863C73.0958 7.82862 72.5518 7.60463 71.9088 7.60463C71.2658 7.60463 70.7228 7.82963 70.2788 8.27863C69.8358 8.72863 69.6128 9.30263 69.6128 10.0006C69.6128 10.6986 69.8358 11.2726 70.2788 11.7226Z" fill="white"/>
<path d="M76.0748 13.0006V7.00063H77.0129L79.9289 11.6676H79.9618L79.9289 10.5116V7.00063H80.6998V13.0006H79.8948L76.8439 8.10664H76.8108L76.8439 9.26263V13.0006H76.0748Z" fill="white"/>
<path fill-rule="evenodd" clip-rule="evenodd" d="M71.9088 6.96563C71.0578 6.96563 70.351 7.25944 69.7815 7.84532C69.2105 8.43183 68.9258 9.14851 68.9258 10.0006C68.9258 10.8527 69.2105 11.5694 69.7815 12.1559C70.3509 12.7417 71.0577 13.0346 71.9088 13.0346C72.7599 13.0346 73.4668 12.7418 74.0372 12.1559C74.6073 11.5693 74.8928 10.8526 74.8928 10.0006C74.8928 9.1539 74.6065 8.43912 74.0331 7.84933C73.4605 7.26024 72.7546 6.96563 71.9088 6.96563ZM69.6381 7.70593C70.2467 7.07981 71.0059 6.76562 71.9088 6.76562C72.8071 6.76562 73.5652 7.08101 74.1765 7.70992C74.7872 8.33812 75.0928 9.10335 75.0928 10.0006C75.0928 10.9026 74.7884 11.6699 74.1805 12.2953C73.571 12.9214 72.8117 13.2346 71.9088 13.2346C71.006 13.2346 70.2467 12.9215 69.6381 12.2953C69.0292 11.6698 68.7258 10.9025 68.7258 10.0006C68.7258 9.09874 69.0291 8.33142 69.6381 7.70593ZM44.969 6.96758C44.1288 6.96758 43.4173 7.25752 42.8314 7.83952C42.2453 8.41988 41.952 9.13802 41.952 10.0016C41.952 10.8641 42.2451 11.5822 42.8314 12.1636C43.4173 12.7446 44.1288 13.0346 44.969 13.0346C45.8489 13.0346 46.5576 12.7475 47.1006 12.1776L47.1022 12.1759C47.5769 11.7002 47.818 11.0605 47.818 10.2436C47.818 10.1298 47.8096 10.0121 47.7908 9.89058H45.068V10.4116H47.256L47.2466 10.5202C47.2001 11.0563 47.0254 11.4855 46.7148 11.7972C46.2478 12.2642 45.6626 12.4966 44.968 12.4966C44.3097 12.4966 43.7389 12.2643 43.2596 11.8026C42.7767 11.3376 42.538 10.7334 42.538 10.0006C42.538 9.26771 42.7767 8.66358 43.2596 8.19855C43.7389 7.73688 44.3097 7.50458 44.968 7.50458C45.6516 7.50458 46.2038 7.72461 46.6156 8.17038L47.001 7.78422C46.7859 7.55054 46.5064 7.35908 46.1605 7.21046C45.783 7.04884 45.3856 6.96758 44.969 6.96758ZM42.6905 7.69757C43.3147 7.07761 44.0771 6.76758 44.969 6.76758C45.4123 6.76758 45.8367 6.85427 46.2393 7.02665C46.6421 7.19973 46.9689 7.43138 47.2146 7.72432L47.2734 7.79444L46.6044 8.46469L46.5342 8.38071C46.1588 7.93155 45.6416 7.70458 44.968 7.70458C44.3622 7.70458 43.841 7.91628 43.3983 8.34261C42.9592 8.76558 42.738 9.31544 42.738 10.0006C42.738 10.6857 42.9592 11.2356 43.3983 11.6586C43.841 12.0849 44.3622 12.2966 44.968 12.2966C45.6132 12.2966 46.1462 12.0829 46.5731 11.656C46.8228 11.4055 46.9795 11.0602 47.0358 10.6116H44.868V9.69058H47.9577L47.9732 9.77181C48.0044 9.93525 48.018 10.0925 48.018 10.2436C48.018 11.1022 47.7632 11.7962 47.2446 12.3164C46.6596 12.9299 45.8966 13.2346 44.969 13.2346C44.0771 13.2346 43.3146 12.9245 42.6905 12.3056C42.0648 11.685 41.752 10.9151 41.752 10.0016C41.752 9.08716 42.0647 8.3172 42.6905 7.69757ZM48.925 6.90063H52.628V7.83763H49.896V9.53963H52.36V10.4606H49.896V12.1626H52.628V13.1006H48.925V6.90063ZM49.125 7.10063V12.9006H52.428V12.3626H49.696V10.2606H52.16V9.73963H49.696V7.63763H52.428V7.10063H49.125ZM53.2319 6.90063H57.5549V7.83763H55.8789V13.1006H54.9079V7.83763H53.2319V6.90063ZM53.4319 7.10063V7.63763H55.1079V12.9006H55.6789V7.63763H57.3549V7.10063H53.4319ZM60.3379 6.90063H61.3089V13.1006H60.3379V6.90063ZM60.5379 7.10063V12.9006H61.1089V7.10063H60.5379ZM62.0811 6.90063H66.4041V7.83763H64.7281V13.1006H63.7571V7.83763H62.0811V6.90063ZM62.2811 7.10063V7.63763H63.9571V12.9006H64.5281V7.63763H66.2041V7.10063H62.2811ZM75.9748 6.90063H77.0683L79.853 11.3574L79.8289 10.5145L79.8289 10.5116V6.90063H80.7998V13.1006H79.8393L76.9198 8.41743L76.9439 9.26263L76.9439 13.1006H75.9748V6.90063ZM76.1748 7.10063V12.9006H76.7439V9.26263L76.708 8.00664H76.8994L79.9503 12.9006H80.5998V7.10063H80.0289V10.5116L80.0647 11.7676H79.8734L76.9574 7.10063H76.1748ZM70.2077 8.20831C70.6708 7.73999 71.2396 7.50463 71.9088 7.50463C72.5779 7.50463 73.1477 7.73885 73.61 8.20839C74.0744 8.67906 74.3058 9.27922 74.3058 10.0006C74.3058 10.722 74.0744 11.3222 73.61 11.7929C73.1478 12.2613 72.578 12.4966 71.9088 12.4966C71.2397 12.4966 70.6709 12.2623 70.2076 11.7929C69.7443 11.3222 69.5128 10.722 69.5128 10.0006C69.5128 9.27923 69.7444 8.67896 70.2077 8.20831ZM70.3499 8.34894C69.9274 8.77827 69.7128 9.3261 69.7128 10.0006C69.7128 10.6752 69.9274 11.2231 70.35 11.6524C70.7748 12.0829 71.292 12.2966 71.9088 12.2966C72.5256 12.2966 73.0438 12.0819 73.4676 11.6524C73.8913 11.2231 74.1058 10.6752 74.1058 10.0006C74.1058 9.32603 73.8913 8.77819 73.4676 8.34886C73.0439 7.91846 72.5257 7.70463 71.9088 7.70463C71.2921 7.70463 70.7748 7.91927 70.3499 8.34894Z" fill="white"/>
</svg>
